<?xml version="1.0" encoding="iso-8859-1"?>
<!-- Generator: Adobe Illustrator 19.0.0, SVG Export Plug-In . SVG Version: 6.00 Build 0)  -->
<svg version="1.1" id="Layer_1" xmlns="http://www.w3.org/2000/svg" xmlns:xlink="http://www.w3.org/1999/xlink" x="0px" y="0px"
	 viewBox="0 0 455 455" style="enable-background:new 0 0 455 455;" xml:space="preserve">
<g>
	<path d="M455,242.5v-30h-59.173c-3.124-35.351-17.174-67.607-38.75-93.364l41.896-41.896L377.76,56.027l-41.896,41.896
		c-25.757-21.576-58.013-35.625-93.364-38.75V0h-30v59.173c-35.351,3.124-67.607,17.174-93.364,38.75L77.24,56.027L56.027,77.24
		l41.896,41.896c-21.576,25.757-35.625,58.013-38.75,93.364H0v30h59.173c3.124,35.351,17.174,67.607,38.75,93.364L56.027,377.76
		l21.213,21.213l41.896-41.896c25.757,21.576,58.013,35.625,93.364,38.75V455h30v-59.173c35.351-3.124,67.607-17.174,93.364-38.75
		l41.896,41.896l21.213-21.213l-41.896-41.896c21.576-25.757,35.625-58.013,38.75-93.364H455z M227.5,366.5
		c-76.645,0-139-62.355-139-139s62.355-139,139-139s139,62.355,139,139S304.145,366.5,227.5,366.5z"/>
	<path d="M227.5,128.5c-54.589,0-99,44.411-99,99s44.411,99,99,99s99-44.411,99-99S282.089,128.5,227.5,128.5z"/>
</g>
<g>
</g>
<g>
</g>
<g>
</g>
<g>
</g>
<g>
</g>
<g>
</g>
<g>
</g>
<g>
</g>
<g>
</g>
<g>
</g>
<g>
</g>
<g>
</g>
<g>
</g>
<g>
</g>
<g>
</g>
</svg>
